<?xml version="1.0" encoding="UTF-8" standalone="no"?>
<svg
   height="24"
   viewBox="0 -960 960 960"
   width="24"
   version="1.1"
   id="svg1"
   sodipodi:docname="question_mark_FILL0_wght400_GRAD0_opsz24.svg"
   inkscape:version="1.3.1 (91b66b0783, 2023-11-16, custom)"
   xmlns:inkscape="http://www.inkscape.org/namespaces/inkscape"
   xmlns:sodipodi="http://sodipodi.sourceforge.net/DTD/sodipodi-0.dtd"
   xmlns="http://www.w3.org/2000/svg"
   xmlns:svg="http://www.w3.org/2000/svg">
  <defs
     id="defs1" />
  <sodipodi:namedview
     id="namedview1"
     pagecolor="#505050"
     bordercolor="#ffffff"
     borderopacity="1"
     inkscape:showpageshadow="0"
     inkscape:pageopacity="0"
     inkscape:pagecheckerboard="1"
     inkscape:deskcolor="#505050"
     inkscape:zoom="37.625"
     inkscape:cx="11.986711"
     inkscape:cy="12"
     inkscape:window-width="1920"
     inkscape:window-height="1080"
     inkscape:window-x="0"
     inkscape:window-y="0"
     inkscape:window-maximized="1"
     inkscape:current-layer="svg1" />
  <path
     d="M424-320q0-81 14.5-116.5T500-514q41-36 62.5-62.5T584-637q0-41-27.5-68T480-732q-51 0-77.5 31T365-638l-103-44q21-64 77-111t141-47q105 0 161.5 58.5T698-641q0 50-21.5 85.5T609-475q-49 47-59.5 71.5T539-320H424Zm56 240q-33 0-56.5-23.5T400-160q0-33 23.5-56.5T480-240q33 0 56.5 23.5T560-160q0 33-23.5 56.5T480-80Z"
     id="path1"
     style="fill:#6c46bc;fill-opacity:1" />
</svg>
